<mxfile host="app.diagrams.net" modified="2022-11-04T11:13:04.563Z" agent="5.0 (Macintosh; Intel Mac OS X 10_15_7) AppleWebKit/537.36 (KHTML, like Gecko) Chrome/107.0.0.0 Safari/537.36" etag="9_P7D6QmxMN4mbIJ0JgJ" version="20.5.1" type="github" pages="3">
  <diagram id="AgBQlWnoEHxcCPggjtpq" name="system image">
    <mxGraphModel dx="3368" dy="936" grid="1" gridSize="10" guides="1" tooltips="1" connect="1" arrows="1" fold="1" page="1" pageScale="1" pageWidth="827" pageHeight="1169" math="0" shadow="0">
      <root>
        <mxCell id="0" />
        <mxCell id="1" parent="0" />
        <mxCell id="dcwnCk_z-_zCKresFfaK-3" value="Actor" style="shape=umlActor;verticalLabelPosition=bottom;verticalAlign=top;html=1;outlineConnect=0;fontColor=#FAFAFA;" parent="1" vertex="1">
          <mxGeometry x="-895" y="280" width="30" height="70" as="geometry" />
        </mxCell>
        <mxCell id="dcwnCk_z-_zCKresFfaK-5" value="ユーザー" style="text;html=1;strokeColor=none;fillColor=none;align=center;verticalAlign=middle;whiteSpace=wrap;rounded=0;fontColor=#330000;" parent="1" vertex="1">
          <mxGeometry x="-910" y="350" width="60" height="30" as="geometry" />
        </mxCell>
        <mxCell id="dcwnCk_z-_zCKresFfaK-7" value="" style="image;html=1;image=img/lib/clip_art/telecommunication/iPhone_128x128.png;fontColor=#330000;flipH=1;" parent="1" vertex="1">
          <mxGeometry x="-865" y="290" width="60" height="60" as="geometry" />
        </mxCell>
        <mxCell id="dcwnCk_z-_zCKresFfaK-8" value="" style="shape=flexArrow;endArrow=classic;html=1;rounded=0;fontColor=#330000;width=10;endSize=6.67;" parent="1" edge="1">
          <mxGeometry width="50" height="50" relative="1" as="geometry">
            <mxPoint x="-805" y="310.5" as="sourcePoint" />
            <mxPoint x="-745" y="310.5" as="targetPoint" />
            <Array as="points">
              <mxPoint x="-805" y="310.5" />
            </Array>
          </mxGeometry>
        </mxCell>
        <mxCell id="dcwnCk_z-_zCKresFfaK-9" value="IDQのシステム構成イメージ" style="text;html=1;strokeColor=none;fillColor=none;align=center;verticalAlign=middle;whiteSpace=wrap;rounded=0;fontColor=#330000;fontSize=21;" parent="1" vertex="1">
          <mxGeometry x="-905" y="32" width="335" height="70" as="geometry" />
        </mxCell>
        <mxCell id="dcwnCk_z-_zCKresFfaK-10" value="フロント&lt;br&gt;エンド" style="whiteSpace=wrap;html=1;aspect=fixed;fontSize=14;fillColor=#dae8fc;strokeColor=#6c8ebf;" parent="1" vertex="1">
          <mxGeometry x="-735" y="282" width="80" height="80" as="geometry" />
        </mxCell>
        <mxCell id="dcwnCk_z-_zCKresFfaK-11" value="&lt;br&gt;&lt;br&gt;ブロックチェーンネットワーク" style="ellipse;whiteSpace=wrap;html=1;fontSize=14;fillColor=#d5e8d4;strokeColor=#82b366;verticalAlign=top;" parent="1" vertex="1">
          <mxGeometry x="-465" y="200" width="390" height="340" as="geometry" />
        </mxCell>
        <mxCell id="dcwnCk_z-_zCKresFfaK-12" value="Factory&lt;br&gt;コントラクト" style="whiteSpace=wrap;html=1;aspect=fixed;fontSize=14;fillColor=#ffe6cc;strokeColor=#d79b00;" parent="1" vertex="1">
          <mxGeometry x="-415" y="271.5" width="97" height="97" as="geometry" />
        </mxCell>
        <mxCell id="dcwnCk_z-_zCKresFfaK-13" value="コア&lt;br&gt;コントラクト" style="whiteSpace=wrap;html=1;aspect=fixed;fontSize=14;fillColor=#ffe6cc;strokeColor=#d79b00;" parent="1" vertex="1">
          <mxGeometry x="-236" y="273.5" width="97" height="97" as="geometry" />
        </mxCell>
        <mxCell id="dcwnCk_z-_zCKresFfaK-15" value="" style="shape=flexArrow;endArrow=classic;html=1;rounded=0;fontColor=#330000;width=10;endSize=6.67;" parent="1" edge="1">
          <mxGeometry width="50" height="50" relative="1" as="geometry">
            <mxPoint x="-485" y="310" as="sourcePoint" />
            <mxPoint x="-425" y="310" as="targetPoint" />
            <Array as="points">
              <mxPoint x="-485" y="310" />
            </Array>
          </mxGeometry>
        </mxCell>
        <mxCell id="dcwnCk_z-_zCKresFfaK-16" value="" style="shape=flexArrow;endArrow=classic;html=1;rounded=0;fontColor=#330000;width=10;endSize=6.67;" parent="1" edge="1">
          <mxGeometry width="50" height="50" relative="1" as="geometry">
            <mxPoint x="-305" y="310" as="sourcePoint" />
            <mxPoint x="-245" y="310" as="targetPoint" />
            <Array as="points">
              <mxPoint x="-305" y="310" />
            </Array>
          </mxGeometry>
        </mxCell>
        <mxCell id="dcwnCk_z-_zCKresFfaK-17" value="" style="shape=flexArrow;endArrow=classic;html=1;rounded=0;fontColor=#330000;width=10;endSize=6.67;" parent="1" edge="1">
          <mxGeometry width="50" height="50" relative="1" as="geometry">
            <mxPoint x="-425" y="340" as="sourcePoint" />
            <mxPoint x="-485" y="340" as="targetPoint" />
            <Array as="points">
              <mxPoint x="-425" y="340" />
            </Array>
          </mxGeometry>
        </mxCell>
        <mxCell id="dcwnCk_z-_zCKresFfaK-18" value="" style="shape=flexArrow;endArrow=classic;html=1;rounded=0;fontColor=#330000;width=10;endSize=6.67;" parent="1" edge="1">
          <mxGeometry width="50" height="50" relative="1" as="geometry">
            <mxPoint x="-245" y="340" as="sourcePoint" />
            <mxPoint x="-305" y="340" as="targetPoint" />
            <Array as="points">
              <mxPoint x="-245" y="340" />
            </Array>
          </mxGeometry>
        </mxCell>
        <mxCell id="dcwnCk_z-_zCKresFfaK-19" value="" style="shape=flexArrow;endArrow=classic;html=1;rounded=0;fontColor=#330000;width=10;endSize=6.67;" parent="1" edge="1">
          <mxGeometry width="50" height="50" relative="1" as="geometry">
            <mxPoint x="-747" y="334" as="sourcePoint" />
            <mxPoint x="-807" y="334" as="targetPoint" />
            <Array as="points">
              <mxPoint x="-747" y="334" />
            </Array>
          </mxGeometry>
        </mxCell>
        <mxCell id="dcwnCk_z-_zCKresFfaK-20" value="・QRコードでイン&lt;br&gt;・基本的にはシンプルなボタン操作&lt;br&gt;・登録済みの場合は、トークンを表示する。&lt;br&gt;・シンプルだがNFTのミント機能もつけてみる？" style="shape=callout;whiteSpace=wrap;html=1;perimeter=calloutPerimeter;fontSize=14;fillColor=#e1d5e7;strokeColor=#9673a6;position2=0.91;base=30;align=left;" parent="1" vertex="1">
          <mxGeometry x="-1010" y="160" width="315" height="130" as="geometry" />
        </mxCell>
        <mxCell id="dcwnCk_z-_zCKresFfaK-21" value="・複数人で供用して利用することが&lt;br&gt;　できるウォレット&lt;br&gt;・利用には事前に円のdepositを行う。&lt;br&gt;・メールアドレスは、ハッシュ化して&lt;br&gt;　登録&lt;br&gt;・MySoulの登録機能を追加する。&lt;br&gt;&amp;nbsp; &amp;nbsp;" style="shape=callout;whiteSpace=wrap;html=1;perimeter=calloutPerimeter;fontSize=14;fillColor=#e1d5e7;strokeColor=#9673a6;position2=0.63;base=30;align=left;" parent="1" vertex="1">
          <mxGeometry x="-530" y="148.5" width="250" height="141.5" as="geometry" />
        </mxCell>
        <mxCell id="dcwnCk_z-_zCKresFfaK-22" value="・ownerやマルチシグ機能の管理&lt;br&gt;・利用上限額とIDを紐づけて&lt;br&gt;　管理する&lt;br&gt;・利用上限の他、データとの紐付&lt;br&gt;&amp;nbsp; &amp;nbsp;け管理できるようにする&lt;br&gt;・DIDを保有する" style="shape=callout;whiteSpace=wrap;html=1;perimeter=calloutPerimeter;fontSize=14;fillColor=#e1d5e7;strokeColor=#9673a6;position2=0.3;base=30;align=left;" parent="1" vertex="1">
          <mxGeometry x="-236" y="160" width="214" height="131.5" as="geometry" />
        </mxCell>
        <mxCell id="dcwnCk_z-_zCKresFfaK-23" value="" style="shape=flexArrow;endArrow=classic;html=1;rounded=0;fontColor=#330000;width=10;endSize=6.67;" parent="1" edge="1">
          <mxGeometry width="50" height="50" relative="1" as="geometry">
            <mxPoint x="-783" y="377.5" as="sourcePoint" />
            <mxPoint x="-740" y="352.37349397590356" as="targetPoint" />
            <Array as="points" />
          </mxGeometry>
        </mxCell>
        <mxCell id="dcwnCk_z-_zCKresFfaK-24" value="" style="shape=flexArrow;endArrow=classic;html=1;rounded=0;fontColor=#330000;width=10;endSize=6.67;" parent="1" edge="1">
          <mxGeometry width="50" height="50" relative="1" as="geometry">
            <mxPoint x="-730" y="379" as="sourcePoint" />
            <mxPoint x="-774" y="400" as="targetPoint" />
            <Array as="points" />
          </mxGeometry>
        </mxCell>
        <mxCell id="dcwnCk_z-_zCKresFfaK-25" value="" style="image;html=1;image=img/lib/clip_art/telecommunication/iPhone_128x128.png;fontColor=#330000;flipH=1;" parent="1" vertex="1">
          <mxGeometry x="-830" y="370.5" width="60" height="60" as="geometry" />
        </mxCell>
        <mxCell id="dcwnCk_z-_zCKresFfaK-26" value="Actor" style="shape=umlActor;verticalLabelPosition=bottom;verticalAlign=top;html=1;outlineConnect=0;fontColor=#FAFAFA;" parent="1" vertex="1">
          <mxGeometry x="-855" y="390" width="30" height="70" as="geometry" />
        </mxCell>
        <mxCell id="dcwnCk_z-_zCKresFfaK-27" value="ユーザー" style="text;html=1;strokeColor=none;fillColor=none;align=center;verticalAlign=middle;whiteSpace=wrap;rounded=0;fontColor=#330000;" parent="1" vertex="1">
          <mxGeometry x="-870" y="460" width="60" height="30" as="geometry" />
        </mxCell>
        <mxCell id="E8tvALSOYSs34_R2YsZq-1" value="API&lt;br&gt;サーバー" style="whiteSpace=wrap;html=1;aspect=fixed;fontSize=14;fillColor=#f8cecc;strokeColor=#b85450;" parent="1" vertex="1">
          <mxGeometry x="-560" y="397.5" width="80" height="80" as="geometry" />
        </mxCell>
        <mxCell id="E8tvALSOYSs34_R2YsZq-2" value="" style="shape=flexArrow;endArrow=classic;html=1;rounded=0;fontColor=#330000;width=10;endSize=6.67;" parent="1" edge="1">
          <mxGeometry width="50" height="50" relative="1" as="geometry">
            <mxPoint x="-475" y="423" as="sourcePoint" />
            <mxPoint x="-415" y="423" as="targetPoint" />
            <Array as="points">
              <mxPoint x="-475" y="423" />
            </Array>
          </mxGeometry>
        </mxCell>
        <mxCell id="E8tvALSOYSs34_R2YsZq-3" value="" style="shape=flexArrow;endArrow=classic;html=1;rounded=0;fontColor=#330000;width=10;endSize=6.67;" parent="1" edge="1">
          <mxGeometry width="50" height="50" relative="1" as="geometry">
            <mxPoint x="-415" y="453" as="sourcePoint" />
            <mxPoint x="-475" y="453" as="targetPoint" />
            <Array as="points">
              <mxPoint x="-415" y="453" />
            </Array>
          </mxGeometry>
        </mxCell>
        <mxCell id="E8tvALSOYSs34_R2YsZq-4" value="呼び出しや秘密鍵は&lt;br&gt;ここに格納する。" style="shape=callout;whiteSpace=wrap;html=1;perimeter=calloutPerimeter;fontSize=14;fillColor=#e1d5e7;strokeColor=#9673a6;position2=0.92;base=30;align=left;" parent="1" vertex="1">
          <mxGeometry x="-660" y="319.25" width="130" height="101.5" as="geometry" />
        </mxCell>
        <mxCell id="E8tvALSOYSs34_R2YsZq-5" value="Token&lt;br&gt;コントラクト" style="whiteSpace=wrap;html=1;aspect=fixed;fontSize=14;fillColor=#ffe6cc;strokeColor=#d79b00;" parent="1" vertex="1">
          <mxGeometry x="-410" y="390" width="97" height="97" as="geometry" />
        </mxCell>
        <mxCell id="E8tvALSOYSs34_R2YsZq-6" value="" style="shape=flexArrow;endArrow=classic;html=1;rounded=0;fontColor=#330000;width=10;endSize=6.67;entryX=-0.021;entryY=0.918;entryDx=0;entryDy=0;entryPerimeter=0;" parent="1" target="dcwnCk_z-_zCKresFfaK-13" edge="1">
          <mxGeometry width="50" height="50" relative="1" as="geometry">
            <mxPoint x="-300" y="423" as="sourcePoint" />
            <mxPoint x="-240" y="423" as="targetPoint" />
            <Array as="points">
              <mxPoint x="-300" y="423" />
            </Array>
          </mxGeometry>
        </mxCell>
        <mxCell id="E8tvALSOYSs34_R2YsZq-7" value="" style="shape=flexArrow;endArrow=classic;html=1;rounded=0;fontColor=#330000;width=10;endSize=6.67;entryX=1;entryY=0.75;entryDx=0;entryDy=0;" parent="1" target="E8tvALSOYSs34_R2YsZq-5" edge="1">
          <mxGeometry width="50" height="50" relative="1" as="geometry">
            <mxPoint x="-220" y="380" as="sourcePoint" />
            <mxPoint x="-280" y="380" as="targetPoint" />
            <Array as="points">
              <mxPoint x="-220" y="380" />
            </Array>
          </mxGeometry>
        </mxCell>
        <mxCell id="E8tvALSOYSs34_R2YsZq-8" value="・トークンMint&lt;br&gt;・トークン burn&lt;br&gt;&lt;br&gt;・トークンは見せたりすることで&lt;br&gt;&amp;nbsp; &amp;nbsp; Mintが完了する。&lt;br&gt;　→ 使う時はAPIサーバーを呼び出す形になる。&amp;nbsp;" style="shape=callout;whiteSpace=wrap;html=1;perimeter=calloutPerimeter;fontSize=14;fillColor=#e1d5e7;strokeColor=#9673a6;position2=0.67;base=30;align=left;" parent="1" vertex="1">
          <mxGeometry x="-382" y="504.5" width="360" height="160" as="geometry" />
        </mxCell>
      </root>
    </mxGraphModel>
  </diagram>
  <diagram name="system image" id="1DUmRJ1kA5HRwejG1FjY">
    <mxGraphModel dx="3368" dy="936" grid="1" gridSize="10" guides="1" tooltips="1" connect="1" arrows="1" fold="1" page="1" pageScale="1" pageWidth="827" pageHeight="1169" math="0" shadow="0">
      <root>
        <mxCell id="0" />
        <mxCell id="1" parent="0" />
        <mxCell id="dcwnCk_z-_zCKresFfaK-3" value="Actor" style="shape=umlActor;verticalLabelPosition=bottom;verticalAlign=top;html=1;outlineConnect=0;fontColor=#FAFAFA;" parent="1" vertex="1">
          <mxGeometry x="-895" y="280" width="30" height="70" as="geometry" />
        </mxCell>
        <mxCell id="dcwnCk_z-_zCKresFfaK-5" value="ユーザー" style="text;html=1;strokeColor=none;fillColor=none;align=center;verticalAlign=middle;whiteSpace=wrap;rounded=0;fontColor=#330000;" parent="1" vertex="1">
          <mxGeometry x="-910" y="350" width="60" height="30" as="geometry" />
        </mxCell>
        <mxCell id="dcwnCk_z-_zCKresFfaK-7" value="" style="image;html=1;image=img/lib/clip_art/telecommunication/iPhone_128x128.png;fontColor=#330000;flipH=1;" parent="1" vertex="1">
          <mxGeometry x="-865" y="290" width="60" height="60" as="geometry" />
        </mxCell>
        <mxCell id="dcwnCk_z-_zCKresFfaK-8" value="" style="shape=flexArrow;endArrow=classic;html=1;rounded=0;fontColor=#330000;width=10;endSize=6.67;" parent="1" edge="1">
          <mxGeometry width="50" height="50" relative="1" as="geometry">
            <mxPoint x="-805" y="310.5" as="sourcePoint" />
            <mxPoint x="-745" y="310.5" as="targetPoint" />
            <Array as="points">
              <mxPoint x="-805" y="310.5" />
            </Array>
          </mxGeometry>
        </mxCell>
        <mxCell id="dcwnCk_z-_zCKresFfaK-9" value="IDQのシステム構成イメージ" style="text;html=1;strokeColor=none;fillColor=none;align=center;verticalAlign=middle;whiteSpace=wrap;rounded=0;fontColor=#330000;fontSize=21;" parent="1" vertex="1">
          <mxGeometry x="-905" y="32" width="335" height="70" as="geometry" />
        </mxCell>
        <mxCell id="dcwnCk_z-_zCKresFfaK-10" value="フロント&lt;br&gt;エンド" style="whiteSpace=wrap;html=1;aspect=fixed;fontSize=14;fillColor=#dae8fc;strokeColor=#6c8ebf;" parent="1" vertex="1">
          <mxGeometry x="-735" y="282" width="80" height="80" as="geometry" />
        </mxCell>
        <mxCell id="dcwnCk_z-_zCKresFfaK-11" value="&lt;br&gt;&lt;br&gt;ブロックチェーンネットワーク" style="ellipse;whiteSpace=wrap;html=1;fontSize=14;fillColor=#d5e8d4;strokeColor=#82b366;verticalAlign=top;" parent="1" vertex="1">
          <mxGeometry x="-465" y="200" width="390" height="340" as="geometry" />
        </mxCell>
        <mxCell id="dcwnCk_z-_zCKresFfaK-12" value="Factory&lt;br&gt;コントラクト" style="whiteSpace=wrap;html=1;aspect=fixed;fontSize=14;fillColor=#ffe6cc;strokeColor=#d79b00;" parent="1" vertex="1">
          <mxGeometry x="-415" y="271.5" width="97" height="97" as="geometry" />
        </mxCell>
        <mxCell id="dcwnCk_z-_zCKresFfaK-13" value="コア&lt;br&gt;コントラクト" style="whiteSpace=wrap;html=1;aspect=fixed;fontSize=14;fillColor=#ffe6cc;strokeColor=#d79b00;" parent="1" vertex="1">
          <mxGeometry x="-236" y="273.5" width="97" height="97" as="geometry" />
        </mxCell>
        <mxCell id="dcwnCk_z-_zCKresFfaK-15" value="" style="shape=flexArrow;endArrow=classic;html=1;rounded=0;fontColor=#330000;width=10;endSize=6.67;" parent="1" edge="1">
          <mxGeometry width="50" height="50" relative="1" as="geometry">
            <mxPoint x="-485" y="310" as="sourcePoint" />
            <mxPoint x="-425" y="310" as="targetPoint" />
            <Array as="points">
              <mxPoint x="-485" y="310" />
            </Array>
          </mxGeometry>
        </mxCell>
        <mxCell id="dcwnCk_z-_zCKresFfaK-16" value="" style="shape=flexArrow;endArrow=classic;html=1;rounded=0;fontColor=#330000;width=10;endSize=6.67;" parent="1" edge="1">
          <mxGeometry width="50" height="50" relative="1" as="geometry">
            <mxPoint x="-305" y="310" as="sourcePoint" />
            <mxPoint x="-245" y="310" as="targetPoint" />
            <Array as="points">
              <mxPoint x="-305" y="310" />
            </Array>
          </mxGeometry>
        </mxCell>
        <mxCell id="dcwnCk_z-_zCKresFfaK-17" value="" style="shape=flexArrow;endArrow=classic;html=1;rounded=0;fontColor=#330000;width=10;endSize=6.67;" parent="1" edge="1">
          <mxGeometry width="50" height="50" relative="1" as="geometry">
            <mxPoint x="-425" y="340" as="sourcePoint" />
            <mxPoint x="-485" y="340" as="targetPoint" />
            <Array as="points">
              <mxPoint x="-425" y="340" />
            </Array>
          </mxGeometry>
        </mxCell>
        <mxCell id="dcwnCk_z-_zCKresFfaK-18" value="" style="shape=flexArrow;endArrow=classic;html=1;rounded=0;fontColor=#330000;width=10;endSize=6.67;" parent="1" edge="1">
          <mxGeometry width="50" height="50" relative="1" as="geometry">
            <mxPoint x="-245" y="340" as="sourcePoint" />
            <mxPoint x="-305" y="340" as="targetPoint" />
            <Array as="points">
              <mxPoint x="-245" y="340" />
            </Array>
          </mxGeometry>
        </mxCell>
        <mxCell id="dcwnCk_z-_zCKresFfaK-19" value="" style="shape=flexArrow;endArrow=classic;html=1;rounded=0;fontColor=#330000;width=10;endSize=6.67;" parent="1" edge="1">
          <mxGeometry width="50" height="50" relative="1" as="geometry">
            <mxPoint x="-747" y="334" as="sourcePoint" />
            <mxPoint x="-807" y="334" as="targetPoint" />
            <Array as="points">
              <mxPoint x="-747" y="334" />
            </Array>
          </mxGeometry>
        </mxCell>
        <mxCell id="dcwnCk_z-_zCKresFfaK-20" value="・QRコードでイン&lt;br&gt;・基本的にはシンプルなボタン操作&lt;br&gt;・登録済みの場合は、トークンを表示する。&lt;br&gt;・シンプルだがNFTのミント機能もつけてみる？" style="shape=callout;whiteSpace=wrap;html=1;perimeter=calloutPerimeter;fontSize=14;fillColor=#e1d5e7;strokeColor=#9673a6;position2=0.91;base=30;align=left;" parent="1" vertex="1">
          <mxGeometry x="-1010" y="160" width="315" height="130" as="geometry" />
        </mxCell>
        <mxCell id="dcwnCk_z-_zCKresFfaK-21" value="・複数人で供用して利用することが&lt;br&gt;　できるウォレット&lt;br&gt;・利用には事前に円のdepositを行う。&lt;br&gt;・メールアドレスは、ハッシュ化して&lt;br&gt;　登録&lt;br&gt;・MySoulの登録機能を追加する。&lt;br&gt;&amp;nbsp; &amp;nbsp;" style="shape=callout;whiteSpace=wrap;html=1;perimeter=calloutPerimeter;fontSize=14;fillColor=#e1d5e7;strokeColor=#9673a6;position2=0.63;base=30;align=left;" parent="1" vertex="1">
          <mxGeometry x="-530" y="148.5" width="250" height="141.5" as="geometry" />
        </mxCell>
        <mxCell id="dcwnCk_z-_zCKresFfaK-22" value="・ownerやマルチシグ機能の管理&lt;br&gt;・利用上限額とIDを紐づけて&lt;br&gt;　管理する&lt;br&gt;・利用上限の他、データとの紐付&lt;br&gt;&amp;nbsp; &amp;nbsp;け管理できるようにする&lt;br&gt;・DIDを保有する" style="shape=callout;whiteSpace=wrap;html=1;perimeter=calloutPerimeter;fontSize=14;fillColor=#e1d5e7;strokeColor=#9673a6;position2=0.3;base=30;align=left;" parent="1" vertex="1">
          <mxGeometry x="-236" y="160" width="214" height="131.5" as="geometry" />
        </mxCell>
        <mxCell id="dcwnCk_z-_zCKresFfaK-23" value="" style="shape=flexArrow;endArrow=classic;html=1;rounded=0;fontColor=#330000;width=10;endSize=6.67;" parent="1" edge="1">
          <mxGeometry width="50" height="50" relative="1" as="geometry">
            <mxPoint x="-783" y="377.5" as="sourcePoint" />
            <mxPoint x="-740" y="352.37349397590356" as="targetPoint" />
            <Array as="points" />
          </mxGeometry>
        </mxCell>
        <mxCell id="dcwnCk_z-_zCKresFfaK-24" value="" style="shape=flexArrow;endArrow=classic;html=1;rounded=0;fontColor=#330000;width=10;endSize=6.67;" parent="1" edge="1">
          <mxGeometry width="50" height="50" relative="1" as="geometry">
            <mxPoint x="-730" y="379" as="sourcePoint" />
            <mxPoint x="-774" y="400" as="targetPoint" />
            <Array as="points" />
          </mxGeometry>
        </mxCell>
        <mxCell id="dcwnCk_z-_zCKresFfaK-25" value="" style="image;html=1;image=img/lib/clip_art/telecommunication/iPhone_128x128.png;fontColor=#330000;flipH=1;" parent="1" vertex="1">
          <mxGeometry x="-830" y="370.5" width="60" height="60" as="geometry" />
        </mxCell>
        <mxCell id="dcwnCk_z-_zCKresFfaK-26" value="Actor" style="shape=umlActor;verticalLabelPosition=bottom;verticalAlign=top;html=1;outlineConnect=0;fontColor=#FAFAFA;" parent="1" vertex="1">
          <mxGeometry x="-855" y="390" width="30" height="70" as="geometry" />
        </mxCell>
        <mxCell id="dcwnCk_z-_zCKresFfaK-27" value="ユーザー" style="text;html=1;strokeColor=none;fillColor=none;align=center;verticalAlign=middle;whiteSpace=wrap;rounded=0;fontColor=#330000;" parent="1" vertex="1">
          <mxGeometry x="-870" y="460" width="60" height="30" as="geometry" />
        </mxCell>
        <mxCell id="E8tvALSOYSs34_R2YsZq-1" value="API&lt;br&gt;サーバー" style="whiteSpace=wrap;html=1;aspect=fixed;fontSize=14;fillColor=#f8cecc;strokeColor=#b85450;" parent="1" vertex="1">
          <mxGeometry x="-560" y="397.5" width="80" height="80" as="geometry" />
        </mxCell>
        <mxCell id="E8tvALSOYSs34_R2YsZq-2" value="" style="shape=flexArrow;endArrow=classic;html=1;rounded=0;fontColor=#330000;width=10;endSize=6.67;" parent="1" edge="1">
          <mxGeometry width="50" height="50" relative="1" as="geometry">
            <mxPoint x="-475" y="423" as="sourcePoint" />
            <mxPoint x="-415" y="423" as="targetPoint" />
            <Array as="points">
              <mxPoint x="-475" y="423" />
            </Array>
          </mxGeometry>
        </mxCell>
        <mxCell id="E8tvALSOYSs34_R2YsZq-3" value="" style="shape=flexArrow;endArrow=classic;html=1;rounded=0;fontColor=#330000;width=10;endSize=6.67;" parent="1" edge="1">
          <mxGeometry width="50" height="50" relative="1" as="geometry">
            <mxPoint x="-415" y="453" as="sourcePoint" />
            <mxPoint x="-475" y="453" as="targetPoint" />
            <Array as="points">
              <mxPoint x="-415" y="453" />
            </Array>
          </mxGeometry>
        </mxCell>
        <mxCell id="E8tvALSOYSs34_R2YsZq-4" value="呼び出しや秘密鍵は&lt;br&gt;ここに格納する。" style="shape=callout;whiteSpace=wrap;html=1;perimeter=calloutPerimeter;fontSize=14;fillColor=#e1d5e7;strokeColor=#9673a6;position2=0.92;base=30;align=left;" parent="1" vertex="1">
          <mxGeometry x="-660" y="319.25" width="130" height="101.5" as="geometry" />
        </mxCell>
        <mxCell id="E8tvALSOYSs34_R2YsZq-5" value="Token&lt;br&gt;コントラクト" style="whiteSpace=wrap;html=1;aspect=fixed;fontSize=14;fillColor=#ffe6cc;strokeColor=#d79b00;" parent="1" vertex="1">
          <mxGeometry x="-410" y="390" width="97" height="97" as="geometry" />
        </mxCell>
        <mxCell id="E8tvALSOYSs34_R2YsZq-6" value="" style="shape=flexArrow;endArrow=classic;html=1;rounded=0;fontColor=#330000;width=10;endSize=6.67;entryX=-0.021;entryY=0.918;entryDx=0;entryDy=0;entryPerimeter=0;" parent="1" target="dcwnCk_z-_zCKresFfaK-13" edge="1">
          <mxGeometry width="50" height="50" relative="1" as="geometry">
            <mxPoint x="-300" y="423" as="sourcePoint" />
            <mxPoint x="-240" y="423" as="targetPoint" />
            <Array as="points">
              <mxPoint x="-300" y="423" />
            </Array>
          </mxGeometry>
        </mxCell>
        <mxCell id="E8tvALSOYSs34_R2YsZq-7" value="" style="shape=flexArrow;endArrow=classic;html=1;rounded=0;fontColor=#330000;width=10;endSize=6.67;entryX=1;entryY=0.75;entryDx=0;entryDy=0;" parent="1" target="E8tvALSOYSs34_R2YsZq-5" edge="1">
          <mxGeometry width="50" height="50" relative="1" as="geometry">
            <mxPoint x="-220" y="380" as="sourcePoint" />
            <mxPoint x="-280" y="380" as="targetPoint" />
            <Array as="points">
              <mxPoint x="-220" y="380" />
            </Array>
          </mxGeometry>
        </mxCell>
        <mxCell id="E8tvALSOYSs34_R2YsZq-8" value="・トークンMint&lt;br&gt;・トークン burn&lt;br&gt;&lt;br&gt;・トークンは見せたりすることで&lt;br&gt;&amp;nbsp; &amp;nbsp; Mintが完了する。&lt;br&gt;　→ 使う時はAPIサーバーを呼び出す形になる。&amp;nbsp;" style="shape=callout;whiteSpace=wrap;html=1;perimeter=calloutPerimeter;fontSize=14;fillColor=#e1d5e7;strokeColor=#9673a6;position2=0.67;base=30;align=left;" parent="1" vertex="1">
          <mxGeometry x="-382" y="504.5" width="360" height="160" as="geometry" />
        </mxCell>
      </root>
    </mxGraphModel>
  </diagram>
  <diagram name="システム構成図" id="rhK60GZt1IiFNhNvPiV1">
    <mxGraphModel dx="2883" dy="936" grid="1" gridSize="10" guides="1" tooltips="1" connect="1" arrows="1" fold="1" page="1" pageScale="1" pageWidth="1169" pageHeight="826" background="none" math="0" shadow="0">
      <root>
        <mxCell id="0" />
        <mxCell id="1" parent="0" />
        <mxCell id="FsVHkm6TuDkBYR7rk3on-1" value="Actor" style="shape=umlActor;verticalLabelPosition=bottom;verticalAlign=top;html=1;outlineConnect=0;fontColor=#FAFAFA;" parent="1" vertex="1">
          <mxGeometry x="-895" y="280" width="30" height="70" as="geometry" />
        </mxCell>
        <mxCell id="FsVHkm6TuDkBYR7rk3on-2" value="ユーザー" style="text;html=1;strokeColor=none;fillColor=none;align=center;verticalAlign=middle;whiteSpace=wrap;rounded=0;fontColor=#330000;" parent="1" vertex="1">
          <mxGeometry x="-910" y="350" width="60" height="30" as="geometry" />
        </mxCell>
        <mxCell id="FsVHkm6TuDkBYR7rk3on-3" value="" style="image;html=1;image=img/lib/clip_art/telecommunication/iPhone_128x128.png;fontColor=#330000;flipH=1;" parent="1" vertex="1">
          <mxGeometry x="-865" y="290" width="60" height="60" as="geometry" />
        </mxCell>
        <mxCell id="FsVHkm6TuDkBYR7rk3on-4" value="" style="shape=flexArrow;endArrow=classic;html=1;rounded=0;fontColor=#330000;width=10;endSize=6.67;" parent="1" edge="1">
          <mxGeometry width="50" height="50" relative="1" as="geometry">
            <mxPoint x="-805" y="310.5" as="sourcePoint" />
            <mxPoint x="-745" y="310.5" as="targetPoint" />
            <Array as="points">
              <mxPoint x="-805" y="310.5" />
            </Array>
          </mxGeometry>
        </mxCell>
        <mxCell id="FsVHkm6TuDkBYR7rk3on-5" value="IDQのシステム構成イメージ" style="text;html=1;strokeColor=none;fillColor=none;align=center;verticalAlign=middle;whiteSpace=wrap;rounded=0;fontColor=#330000;fontSize=21;" parent="1" vertex="1">
          <mxGeometry x="-940" y="50" width="305" height="50" as="geometry" />
        </mxCell>
        <mxCell id="FsVHkm6TuDkBYR7rk3on-6" value="IDQ&lt;br&gt;Soul&amp;nbsp;&lt;br&gt;Wallet" style="whiteSpace=wrap;html=1;aspect=fixed;fontSize=14;fillColor=#dae8fc;strokeColor=#6c8ebf;" parent="1" vertex="1">
          <mxGeometry x="-722" y="282" width="80" height="80" as="geometry" />
        </mxCell>
        <mxCell id="FsVHkm6TuDkBYR7rk3on-7" value="&lt;br&gt;&lt;br&gt;ブロックチェーンネットワーク" style="ellipse;whiteSpace=wrap;html=1;fontSize=14;fillColor=#d5e8d4;strokeColor=#82b366;verticalAlign=top;" parent="1" vertex="1">
          <mxGeometry x="-465" y="200" width="390" height="350" as="geometry" />
        </mxCell>
        <mxCell id="FsVHkm6TuDkBYR7rk3on-8" value="Factory&lt;br&gt;コントラクト" style="whiteSpace=wrap;html=1;aspect=fixed;fontSize=14;fillColor=#ffe6cc;strokeColor=#d79b00;" parent="1" vertex="1">
          <mxGeometry x="-415" y="271.5" width="97" height="97" as="geometry" />
        </mxCell>
        <mxCell id="FsVHkm6TuDkBYR7rk3on-9" value="Wallet&lt;br&gt;コントラクト" style="whiteSpace=wrap;html=1;aspect=fixed;fontSize=14;fillColor=#ffe6cc;strokeColor=#d79b00;" parent="1" vertex="1">
          <mxGeometry x="-236" y="273.5" width="97" height="97" as="geometry" />
        </mxCell>
        <mxCell id="FsVHkm6TuDkBYR7rk3on-10" value="" style="shape=flexArrow;endArrow=classic;html=1;rounded=0;fontColor=#330000;width=10;endSize=6.67;" parent="1" edge="1">
          <mxGeometry width="50" height="50" relative="1" as="geometry">
            <mxPoint x="-485" y="310" as="sourcePoint" />
            <mxPoint x="-425" y="310" as="targetPoint" />
            <Array as="points">
              <mxPoint x="-485" y="310" />
            </Array>
          </mxGeometry>
        </mxCell>
        <mxCell id="FsVHkm6TuDkBYR7rk3on-11" value="" style="shape=flexArrow;endArrow=classic;html=1;rounded=0;fontColor=#330000;width=10;endSize=6.67;" parent="1" edge="1">
          <mxGeometry width="50" height="50" relative="1" as="geometry">
            <mxPoint x="-305" y="310" as="sourcePoint" />
            <mxPoint x="-245" y="310" as="targetPoint" />
            <Array as="points">
              <mxPoint x="-305" y="310" />
            </Array>
          </mxGeometry>
        </mxCell>
        <mxCell id="FsVHkm6TuDkBYR7rk3on-12" value="" style="shape=flexArrow;endArrow=classic;html=1;rounded=0;fontColor=#330000;width=10;endSize=6.67;" parent="1" edge="1">
          <mxGeometry width="50" height="50" relative="1" as="geometry">
            <mxPoint x="-425" y="340" as="sourcePoint" />
            <mxPoint x="-485" y="340" as="targetPoint" />
            <Array as="points">
              <mxPoint x="-425" y="340" />
            </Array>
          </mxGeometry>
        </mxCell>
        <mxCell id="FsVHkm6TuDkBYR7rk3on-13" value="" style="shape=flexArrow;endArrow=classic;html=1;rounded=0;fontColor=#330000;width=10;endSize=6.67;" parent="1" edge="1">
          <mxGeometry width="50" height="50" relative="1" as="geometry">
            <mxPoint x="-245" y="340" as="sourcePoint" />
            <mxPoint x="-305" y="340" as="targetPoint" />
            <Array as="points">
              <mxPoint x="-245" y="340" />
            </Array>
          </mxGeometry>
        </mxCell>
        <mxCell id="FsVHkm6TuDkBYR7rk3on-14" value="" style="shape=flexArrow;endArrow=classic;html=1;rounded=0;fontColor=#330000;width=10;endSize=6.67;" parent="1" edge="1">
          <mxGeometry width="50" height="50" relative="1" as="geometry">
            <mxPoint x="-747" y="334" as="sourcePoint" />
            <mxPoint x="-807" y="334" as="targetPoint" />
            <Array as="points">
              <mxPoint x="-747" y="334" />
            </Array>
          </mxGeometry>
        </mxCell>
        <mxCell id="FsVHkm6TuDkBYR7rk3on-18" value="" style="shape=flexArrow;endArrow=classic;html=1;rounded=0;fontColor=#330000;width=10;endSize=6.67;" parent="1" edge="1">
          <mxGeometry width="50" height="50" relative="1" as="geometry">
            <mxPoint x="-783" y="377.5" as="sourcePoint" />
            <mxPoint x="-740" y="352.37349397590356" as="targetPoint" />
            <Array as="points" />
          </mxGeometry>
        </mxCell>
        <mxCell id="FsVHkm6TuDkBYR7rk3on-19" value="" style="shape=flexArrow;endArrow=classic;html=1;rounded=0;fontColor=#330000;width=10;endSize=6.67;" parent="1" edge="1">
          <mxGeometry width="50" height="50" relative="1" as="geometry">
            <mxPoint x="-730" y="379" as="sourcePoint" />
            <mxPoint x="-774" y="400" as="targetPoint" />
            <Array as="points" />
          </mxGeometry>
        </mxCell>
        <mxCell id="FsVHkm6TuDkBYR7rk3on-20" value="" style="image;html=1;image=img/lib/clip_art/telecommunication/iPhone_128x128.png;fontColor=#330000;flipH=1;" parent="1" vertex="1">
          <mxGeometry x="-830" y="370.5" width="60" height="60" as="geometry" />
        </mxCell>
        <mxCell id="FsVHkm6TuDkBYR7rk3on-21" value="Actor" style="shape=umlActor;verticalLabelPosition=bottom;verticalAlign=top;html=1;outlineConnect=0;fontColor=#FAFAFA;" parent="1" vertex="1">
          <mxGeometry x="-855" y="390" width="30" height="70" as="geometry" />
        </mxCell>
        <mxCell id="FsVHkm6TuDkBYR7rk3on-22" value="ユーザー" style="text;html=1;strokeColor=none;fillColor=none;align=center;verticalAlign=middle;whiteSpace=wrap;rounded=0;fontColor=#330000;" parent="1" vertex="1">
          <mxGeometry x="-870" y="460" width="60" height="30" as="geometry" />
        </mxCell>
        <mxCell id="FsVHkm6TuDkBYR7rk3on-23" value="API&lt;br&gt;サーバー" style="whiteSpace=wrap;html=1;aspect=fixed;fontSize=14;fillColor=#f8cecc;strokeColor=#b85450;" parent="1" vertex="1">
          <mxGeometry x="-570" y="282" width="80" height="80" as="geometry" />
        </mxCell>
        <mxCell id="FsVHkm6TuDkBYR7rk3on-24" value="" style="shape=flexArrow;endArrow=classic;html=1;rounded=0;fontColor=#330000;width=10;endSize=6.67;entryX=0;entryY=0.5;entryDx=0;entryDy=0;" parent="1" edge="1">
          <mxGeometry width="50" height="50" relative="1" as="geometry">
            <mxPoint x="-487" y="363.5" as="sourcePoint" />
            <mxPoint x="-413" y="435.5" as="targetPoint" />
            <Array as="points">
              <mxPoint x="-487" y="363.5" />
            </Array>
          </mxGeometry>
        </mxCell>
        <mxCell id="FsVHkm6TuDkBYR7rk3on-25" value="" style="shape=flexArrow;endArrow=classic;html=1;rounded=0;fontColor=#330000;width=10;endSize=6.67;" parent="1" edge="1">
          <mxGeometry width="50" height="50" relative="1" as="geometry">
            <mxPoint x="-419" y="459" as="sourcePoint" />
            <mxPoint x="-514" y="372" as="targetPoint" />
            <Array as="points" />
          </mxGeometry>
        </mxCell>
        <mxCell id="FsVHkm6TuDkBYR7rk3on-27" value="Token&lt;br&gt;コントラクト" style="whiteSpace=wrap;html=1;aspect=fixed;fontSize=14;fillColor=#ffe6cc;strokeColor=#d79b00;" parent="1" vertex="1">
          <mxGeometry x="-411" y="393" width="97" height="97" as="geometry" />
        </mxCell>
        <mxCell id="FsVHkm6TuDkBYR7rk3on-32" value="" style="shape=flexArrow;endArrow=classic;html=1;rounded=0;fontColor=#330000;width=10;endSize=6.67;" parent="1" edge="1">
          <mxGeometry width="50" height="50" relative="1" as="geometry">
            <mxPoint x="-635" y="310" as="sourcePoint" />
            <mxPoint x="-575" y="310" as="targetPoint" />
            <Array as="points">
              <mxPoint x="-635" y="310" />
            </Array>
          </mxGeometry>
        </mxCell>
        <mxCell id="FsVHkm6TuDkBYR7rk3on-33" value="" style="shape=flexArrow;endArrow=classic;html=1;rounded=0;fontColor=#330000;width=10;endSize=6.67;" parent="1" edge="1">
          <mxGeometry width="50" height="50" relative="1" as="geometry">
            <mxPoint x="-575" y="340" as="sourcePoint" />
            <mxPoint x="-635" y="340" as="targetPoint" />
            <Array as="points">
              <mxPoint x="-575" y="340" />
            </Array>
          </mxGeometry>
        </mxCell>
        <mxCell id="FsVHkm6TuDkBYR7rk3on-35" value="" style="shape=flexArrow;endArrow=classic;html=1;rounded=0;fontColor=#330000;width=10;endSize=6.67;" parent="1" edge="1">
          <mxGeometry width="50" height="50" relative="1" as="geometry">
            <mxPoint x="-402" y="179" as="sourcePoint" />
            <mxPoint x="-512" y="280.5" as="targetPoint" />
            <Array as="points" />
          </mxGeometry>
        </mxCell>
        <mxCell id="FsVHkm6TuDkBYR7rk3on-36" value="" style="shape=flexArrow;endArrow=classic;html=1;rounded=0;fontColor=#330000;width=10;endSize=6.67;entryX=0.029;entryY=0.689;entryDx=0;entryDy=0;entryPerimeter=0;" parent="1" target="FsVHkm6TuDkBYR7rk3on-37" edge="1">
          <mxGeometry width="50" height="50" relative="1" as="geometry">
            <mxPoint x="-540" y="274" as="sourcePoint" />
            <mxPoint x="-440" y="184" as="targetPoint" />
            <Array as="points">
              <mxPoint x="-540" y="274" />
            </Array>
          </mxGeometry>
        </mxCell>
        <mxCell id="FsVHkm6TuDkBYR7rk3on-37" value="&lt;font style=&quot;font-size: 22px;&quot;&gt;&lt;br&gt;ION&lt;/font&gt;" style="ellipse;whiteSpace=wrap;html=1;fontSize=14;fillColor=#1ba1e2;strokeColor=#006EAF;verticalAlign=top;fontColor=#ffffff;" parent="1" vertex="1">
          <mxGeometry x="-422" y="99" width="136" height="90" as="geometry" />
        </mxCell>
        <mxCell id="FsVHkm6TuDkBYR7rk3on-38" value="Blocto SDK" style="ellipse;whiteSpace=wrap;html=1;fontSize=14;fillColor=#b0e3e6;strokeColor=#0e8088;verticalAlign=top;" parent="1" vertex="1">
          <mxGeometry x="-733" y="350" width="102" height="30" as="geometry" />
        </mxCell>
      </root>
    </mxGraphModel>
  </diagram>
</mxfile>
